<?xml version="1.0" encoding="utf-8"?>
<!-- Generator: Adobe Illustrator 27.4.0, SVG Export Plug-In . SVG Version: 6.00 Build 0)  -->
<svg version="1.1" id="LOGO" xmlns="http://www.w3.org/2000/svg" xmlns:xlink="http://www.w3.org/1999/xlink" x="0px" y="0px"
	 viewBox="0 0 787.1 195.8" style="enable-background:new 0 0 787.1 195.8;" xml:space="preserve">
<style type="text/css">
	.st0{fill:#404041;}
	.st1{fill:#EE316B;}
	.st2{fill:#00B9E4;}
	.st3{fill:#9ADE29;}
	.st4{fill:#9F5CEA;}
	.st5{fill:#EEDC24;}
</style>
<path id="EDELWEISS_DIGITAL_LOGO" d="M261,138.6h2.4v16.3h-1.8v-12.4h-0.2l-5.1,12.4h-1.8l-5.1-12.4h-0.2v12.4h-1.8v-16.3h2.4
	l5.5,13.6h0.2L261,138.6z M278.7,149.3c0,0.8-0.2,1.5-0.5,2.1c-0.3,0.6-0.8,1.1-1.5,1.5c-0.7,0.4-1.4,0.5-2.3,0.5
	c-0.9,0-1.7-0.2-2.3-0.5c-0.7-0.4-1.2-0.8-1.5-1.5c-0.4-0.6-0.5-1.3-0.5-2.1v-10.6h-2v10.8c0,1.1,0.3,2.1,0.8,3
	c0.5,0.9,1.3,1.6,2.2,2.1c1,0.5,2.1,0.8,3.3,0.8c1.3,0,2.4-0.3,3.3-0.8c1-0.5,1.7-1.2,2.2-2.1c0.5-0.9,0.8-1.9,0.8-3v-10.8h-2V149.3
	z M189.2,154.9h2v-7.3h7.1v-1.8h-7.1v-5.5h7.8v-1.8h-9.8V154.9z M241.5,138.6l-7.3,8.1H234v-8.1h-2v16.3h2v-5.3l2-2.3l5.7,7.6h2.4
	l-6.9-9l6.9-7.4H241.5z M220.9,142.5c-0.7,0-1.4,0.2-2,0.6c-0.6,0.4-1,0.9-1.2,1.5h-0.1v-1.9h-1.8v12.2h1.9v-7.7
	c0-0.6,0.1-1,0.4-1.5c0.3-0.4,0.6-0.8,1.1-1c0.5-0.2,1-0.4,1.6-0.4c0.3,0,0.5,0,0.7,0c0.2,0,0.4,0.1,0.4,0.1v-1.9
	c-0.1,0-0.3,0-0.5,0C221.2,142.5,221,142.5,220.9,142.5z M209.1,140.7c0.4,0,0.7-0.1,0.9-0.4s0.4-0.6,0.4-0.9c0-0.4-0.1-0.7-0.4-0.9
	c-0.2-0.2-0.5-0.4-0.9-0.4c-0.3,0-0.6,0.1-0.9,0.4c-0.3,0.2-0.4,0.5-0.4,0.9c0,0.3,0.1,0.6,0.4,0.9
	C208.5,140.5,208.8,140.7,209.1,140.7z M209.8,149.9c0,0.8-0.2,1.4-0.5,1.9c-0.3,0.5-0.7,0.9-1.2,1.1c-0.5,0.2-1,0.4-1.4,0.4
	c-0.8,0-1.4-0.3-1.9-0.8c-0.5-0.5-0.8-1.2-0.8-2.1v-7.7H202v7.8c0,1,0.2,1.9,0.5,2.6c0.3,0.7,0.8,1.2,1.4,1.5c0.6,0.3,1.3,0.5,2,0.5
	c0.9,0,1.7-0.2,2.3-0.6c0.6-0.4,1.1-1,1.3-1.6h0.1v2.1h1.9v-12.2h-1.9V149.9z M205.5,140.3c0.2-0.3,0.4-0.6,0.4-0.9
	c0-0.4-0.1-0.7-0.4-0.9c-0.2-0.2-0.5-0.4-0.9-0.4c-0.3,0-0.6,0.1-0.9,0.4c-0.3,0.2-0.4,0.5-0.4,0.9c0,0.3,0.1,0.6,0.4,0.9
	c0.3,0.3,0.6,0.4,0.9,0.4C204.9,140.7,205.2,140.5,205.5,140.3z M347.6,142.5c-0.9,0-1.6,0.2-2.3,0.6c-0.6,0.4-1.1,0.9-1.4,1.5h-0.1
	c-0.3-0.7-0.7-1.2-1.3-1.5c-0.5-0.4-1.2-0.5-2-0.5c-0.8,0-1.5,0.2-2,0.5c-0.6,0.4-1,0.9-1.2,1.5h-0.2v-1.9h-1.8v12.2h1.9v-7.7
	c0-0.6,0.1-1.1,0.4-1.6c0.3-0.5,0.6-0.8,1-1.1c0.4-0.3,0.9-0.4,1.4-0.4c0.7,0,1.3,0.2,1.7,0.6c0.4,0.4,0.7,1,0.7,1.7v8.4h1.9v-8
	c0-0.8,0.2-1.4,0.7-2c0.5-0.5,1.1-0.8,2-0.8c0.7,0,1.3,0.2,1.7,0.6c0.5,0.4,0.7,1,0.7,1.9v8.2h1.9v-8.2c0-1.4-0.3-2.5-1-3.2
	C349.6,142.9,348.7,142.5,347.6,142.5z M368.8,154.9h1.9v-16.3h-1.9V154.9z M364.2,144.5c0.3,0.6,0.5,1.4,0.5,2.3v8.1h-1.9v-1.7
	h-0.1c-0.1,0.3-0.3,0.6-0.6,0.9c-0.3,0.3-0.7,0.6-1.2,0.8c-0.5,0.2-1.1,0.3-1.8,0.3c-0.8,0-1.5-0.1-2.1-0.4
	c-0.6-0.3-1.1-0.7-1.5-1.3c-0.4-0.6-0.6-1.2-0.6-2c0-0.7,0.1-1.3,0.4-1.7c0.3-0.4,0.6-0.8,1.1-1c0.5-0.2,1-0.4,1.5-0.6
	c0.6-0.1,1.1-0.2,1.7-0.3c0.7-0.1,1.3-0.2,1.8-0.2c0.5-0.1,0.8-0.1,1-0.3c0.2-0.1,0.3-0.3,0.3-0.6v-0.1c0-0.8-0.2-1.4-0.6-1.8
	c-0.4-0.4-1.1-0.7-1.9-0.7c-0.9,0-1.6,0.2-2.1,0.6c-0.5,0.4-0.9,0.8-1.1,1.3l-1.8-0.6c0.3-0.7,0.7-1.3,1.3-1.7
	c0.5-0.4,1.1-0.7,1.8-0.9c0.6-0.2,1.3-0.3,1.9-0.3c0.4,0,0.8,0,1.4,0.1c0.5,0.1,1,0.3,1.5,0.6C363.5,143.5,363.9,144,364.2,144.5z
	 M362.8,148.8c-0.1,0.1-0.3,0.2-0.5,0.3c-0.3,0.1-0.6,0.1-0.9,0.2c-0.3,0.1-0.7,0.1-1,0.1c-0.3,0-0.6,0.1-0.8,0.1
	c-0.5,0.1-0.9,0.2-1.4,0.3c-0.4,0.1-0.8,0.4-1,0.6c-0.3,0.3-0.4,0.7-0.4,1.1c0,0.7,0.2,1.1,0.7,1.5c0.5,0.3,1.1,0.5,1.9,0.5
	c0.7,0,1.4-0.1,1.9-0.4c0.5-0.3,0.9-0.7,1.2-1.1c0.3-0.5,0.4-0.9,0.4-1.5V148.8z M376.1,152.2c-0.4,0-0.7,0.1-1,0.4
	c-0.3,0.3-0.4,0.6-0.4,1c0,0.4,0.1,0.7,0.4,1c0.3,0.3,0.6,0.4,1,0.4c0.3,0,0.5-0.1,0.7-0.2c0.2-0.1,0.4-0.3,0.5-0.5
	c0.1-0.2,0.2-0.5,0.2-0.7c0-0.4-0.1-0.7-0.4-1C376.9,152.3,376.5,152.2,376.1,152.2z M329.3,154.9h1.9v-12.2h-1.9V154.9z
	 M316.2,145.5c0.4,0.9,0.7,2.1,0.7,3.3c0,1.3-0.2,2.4-0.7,3.4s-1.1,1.7-1.8,2.2c-0.8,0.5-1.7,0.8-2.7,0.8c-0.8,0-1.4-0.1-1.9-0.4
	c-0.5-0.3-0.8-0.6-1.1-0.9c-0.3-0.3-0.5-0.6-0.6-0.8h-0.2v6.5h-1.9v-16.8h1.8v1.9h0.2c0.1-0.2,0.3-0.5,0.6-0.8
	c0.2-0.3,0.6-0.6,1.1-0.9s1.1-0.4,1.9-0.4c1,0,1.9,0.3,2.7,0.8C315.2,143.8,315.8,144.6,316.2,145.5z M315,148.8
	c0-0.9-0.1-1.6-0.4-2.3c-0.3-0.7-0.7-1.2-1.2-1.6c-0.5-0.4-1.2-0.6-2-0.6c-0.8,0-1.4,0.2-1.9,0.6c-0.5,0.4-0.9,0.9-1.2,1.6
	c-0.3,0.7-0.4,1.5-0.4,2.4c0,0.9,0.1,1.7,0.4,2.4c0.3,0.7,0.7,1.3,1.2,1.7c0.5,0.4,1.2,0.6,1.9,0.6c0.8,0,1.4-0.2,2-0.6
	c0.5-0.4,0.9-1,1.2-1.7C314.9,150.5,315,149.7,315,148.8z M330.2,138.1c-0.4,0-0.7,0.1-0.9,0.4c-0.3,0.2-0.4,0.5-0.4,0.9
	c0,0.4,0.1,0.7,0.4,0.9c0.3,0.3,0.6,0.4,0.9,0.4c0.4,0,0.7-0.1,0.9-0.4c0.3-0.3,0.4-0.5,0.4-0.9c0-0.4-0.1-0.7-0.4-0.9
	C330.9,138.2,330.6,138.1,330.2,138.1z M325.3,153.2c-0.1,0-0.3,0-0.5,0c-0.3,0-0.5,0-0.8-0.1c-0.2-0.1-0.4-0.3-0.6-0.5
	c-0.2-0.3-0.2-0.7-0.2-1.2v-7.1h2.6v-1.6h-2.6v-2.9h-1.9v2.9h-1.9v1.6h1.9v7.7c0,0.7,0.2,1.3,0.5,1.8c0.3,0.5,0.8,0.8,1.3,1
	c0.5,0.2,1,0.3,1.6,0.3c0.4,0,0.6,0,0.9-0.1c0.2,0,0.4-0.1,0.5-0.1l-0.4-1.7C325.5,153.2,325.4,153.2,325.3,153.2z M301.8,145.5
	c0.5,1,0.7,2.1,0.7,3.3c0,1.3-0.2,2.4-0.7,3.3c-0.5,0.9-1.1,1.7-1.9,2.2c-0.8,0.5-1.8,0.8-2.9,0.8c-1.1,0-2.1-0.3-2.9-0.8
	c-0.8-0.5-1.5-1.3-1.9-2.2c-0.5-0.9-0.7-2-0.7-3.3c0-1.3,0.2-2.4,0.7-3.3c0.5-1,1.1-1.7,1.9-2.2c0.8-0.5,1.8-0.8,2.9-0.8
	c1.1,0,2.1,0.3,2.9,0.8C300.7,143.8,301.4,144.6,301.8,145.5z M300.6,148.9c0-0.8-0.1-1.6-0.4-2.3c-0.3-0.7-0.7-1.3-1.2-1.7
	c-0.5-0.4-1.2-0.7-2.1-0.7c-0.8,0-1.5,0.2-2.1,0.7c-0.5,0.4-0.9,1-1.2,1.7c-0.3,0.7-0.4,1.5-0.4,2.3c0,0.8,0.1,1.6,0.4,2.3
	s0.7,1.3,1.2,1.7c0.5,0.4,1.2,0.6,2.1,0.6c0.8,0,1.5-0.2,2.1-0.6c0.5-0.4,0.9-1,1.2-1.7C300.5,150.5,300.6,149.7,300.6,148.9z
	 M195.4,100.5h18.1v-5.3h-18.1V82.7h19.5v-5.3h-25.6v40.9h25.9V113h-19.7V100.5z M237.5,118.3h-13.2V77.4h13.6c4,0,7.4,0.8,10.3,2.4
	c2.9,1.6,5.1,4,6.6,7c1.5,3,2.3,6.7,2.3,10.9c0,4.3-0.8,7.9-2.3,11c-1.5,3.1-3.8,5.4-6.7,7.1C245.1,117.5,241.6,118.3,237.5,118.3z
	 M237.1,112.9c3.1,0,5.7-0.6,7.8-1.8c2.1-1.2,3.6-2.9,4.6-5.1c1-2.2,1.5-5,1.5-8.2c0-3.2-0.5-5.9-1.5-8.2c-1-2.2-2.5-3.9-4.5-5.1
	c-2-1.2-4.5-1.7-7.5-1.7h-7.1v30.1H237.1z M291.8,113h-19.7v-12.5h18.1v-5.3h-18.1V82.7h19.5v-5.3h-25.6v40.9h25.9V113z M325.6,113
	h-18.5V77.4h-6.2v40.9h24.7V113z M367.8,109.1h-0.4l-8.3-31.7h-6.4l-8.3,31.6h-0.4l-8-31.6h-6.5l11.3,40.9h6.2l8.6-30.6h0.3
	l8.6,30.6h6.2l11.4-40.9h-6.5L367.8,109.1z M395.2,100.5h18.1v-5.3h-18.1V82.7h19.5v-5.3H389v40.9h25.9V113h-19.7V100.5z M424,118.3
	h6.2V77.4H424V118.3z M465.2,99c-1.2-0.9-2.4-1.6-3.8-2.2c-1.4-0.5-2.7-1-4-1.3l-4-1c-0.8-0.2-1.6-0.5-2.5-0.8
	c-0.9-0.3-1.7-0.7-2.4-1.2c-0.8-0.5-1.4-1.1-1.8-1.8c-0.5-0.7-0.7-1.5-0.7-2.5c0-1.2,0.3-2.2,1-3.1c0.7-0.9,1.6-1.6,2.8-2.2
	c1.2-0.5,2.7-0.8,4.4-0.8c2.3,0,4.3,0.5,5.8,1.6c1.5,1,2.4,2.5,2.6,4.4h5.9c-0.1-2.2-0.7-4.1-1.9-5.8c-1.2-1.7-2.9-3-5-4
	c-2.1-1-4.6-1.5-7.3-1.5c-2.7,0-5.2,0.5-7.4,1.5c-2.2,1-3.9,2.3-5.2,4.1c-1.3,1.8-1.9,3.8-1.9,6.2c0,2.8,1,5.1,2.9,6.9
	s4.5,3,7.8,3.9l4.8,1.3c1.5,0.4,2.8,0.8,3.9,1.3c1.2,0.5,2.1,1.1,2.8,1.9c0.7,0.8,1,1.8,1,3c0,1.3-0.4,2.5-1.2,3.5
	c-0.8,1-1.9,1.8-3.2,2.3c-1.4,0.6-2.9,0.8-4.7,0.8c-1.6,0-3-0.2-4.4-0.7c-1.3-0.5-2.4-1.2-3.3-2.2c-0.8-1-1.3-2.2-1.4-3.7h-6.2
	c0.1,2.5,0.8,4.6,2.1,6.4c1.3,1.8,3,3.2,5.2,4.1c2.2,1,4.9,1.5,7.9,1.5c3.2,0,5.9-0.5,8.2-1.6c2.3-1,4-2.5,5.2-4.3
	c1.2-1.8,1.8-3.9,1.8-6.2c0-1.8-0.4-3.4-1.1-4.7C467.3,101,466.3,99.9,465.2,99z M502.5,99c-1.2-0.9-2.4-1.6-3.8-2.2
	c-1.4-0.5-2.7-1-4-1.3l-4-1c-0.8-0.2-1.6-0.5-2.5-0.8c-0.9-0.3-1.7-0.7-2.4-1.2c-0.8-0.5-1.4-1.1-1.8-1.8c-0.5-0.7-0.7-1.5-0.7-2.5
	c0-1.2,0.3-2.2,1-3.1c0.7-0.9,1.6-1.6,2.8-2.2c1.2-0.5,2.7-0.8,4.4-0.8c2.3,0,4.3,0.5,5.8,1.6c1.5,1,2.4,2.5,2.6,4.4h5.9
	c-0.1-2.2-0.7-4.1-1.9-5.8c-1.2-1.7-2.9-3-5-4c-2.1-1-4.6-1.5-7.3-1.5c-2.7,0-5.2,0.5-7.4,1.5c-2.2,1-3.9,2.3-5.2,4.1
	c-1.3,1.8-1.9,3.8-1.9,6.2c0,2.8,1,5.1,2.9,6.9s4.5,3,7.8,3.9l4.8,1.3c1.5,0.4,2.8,0.8,3.9,1.3c1.2,0.5,2.1,1.1,2.8,1.9
	c0.7,0.8,1,1.8,1,3c0,1.3-0.4,2.5-1.2,3.5c-0.8,1-1.9,1.8-3.2,2.3c-1.4,0.6-2.9,0.8-4.7,0.8c-1.6,0-3-0.2-4.4-0.7
	c-1.3-0.5-2.4-1.2-3.3-2.2c-0.8-1-1.3-2.2-1.4-3.7H476c0.1,2.5,0.8,4.6,2.1,6.4c1.3,1.8,3,3.2,5.2,4.1c2.2,1,4.9,1.5,7.9,1.5
	c3.2,0,5.9-0.5,8.2-1.6c2.3-1,4-2.5,5.2-4.3c1.2-1.8,1.8-3.9,1.8-6.2c0-1.8-0.4-3.4-1.1-4.7C504.6,101,503.6,99.9,502.5,99z
	 M561.5,86.9c1.5,3,2.3,6.7,2.3,10.9c0,4.3-0.8,7.9-2.3,11c-1.5,3.1-3.8,5.4-6.7,7.1c-2.9,1.6-6.5,2.5-10.6,2.5h-13.2V77.4h13.6
	c4,0,7.4,0.8,10.3,2.4C557.7,81.5,559.9,83.8,561.5,86.9z M557.7,97.8c0-3.2-0.5-5.9-1.5-8.2c-1-2.2-2.5-3.9-4.5-5.1
	c-2-1.2-4.5-1.7-7.5-1.7H537v30.1h6.7c3.1,0,5.7-0.6,7.8-1.8c2.1-1.2,3.6-2.9,4.6-5.1C557.2,103.8,557.7,101,557.7,97.8z
	 M572.5,118.3h6.2V77.4h-6.2V118.3z M607,102.5h10.1c0,2.1-0.5,4-1.4,5.6c-0.9,1.7-2.2,2.9-3.9,3.8c-1.7,0.9-3.6,1.4-5.8,1.4
	c-2.4,0-4.5-0.6-6.4-1.8c-1.9-1.2-3.4-2.9-4.4-5.2s-1.6-5.1-1.6-8.4c0-3.3,0.5-6.1,1.6-8.4c1.1-2.3,2.5-4,4.4-5.2s3.9-1.8,6.2-1.8
	c1.4,0,2.6,0.2,3.7,0.5c1.1,0.4,2.2,0.9,3,1.6c0.9,0.7,1.7,1.5,2.3,2.5c0.6,1,1.2,2.1,1.5,3.3h6.3c-0.3-2-1-3.8-2-5.5
	c-1-1.6-2.2-3.1-3.7-4.3c-1.5-1.2-3.2-2.1-5.1-2.8c-1.9-0.7-4-1-6.2-1c-2.6,0-5.1,0.5-7.3,1.4c-2.2,1-4.2,2.4-5.8,4.2
	c-1.6,1.8-2.9,4-3.8,6.6s-1.4,5.5-1.4,8.8c0,4.3,0.8,8,2.3,11.2c1.6,3.1,3.7,5.5,6.5,7.3c2.8,1.7,6,2.6,9.7,2.6
	c3.3,0,6.2-0.7,8.8-2.1s4.6-3.3,6-5.8c1.5-2.5,2.2-5.5,2.2-8.9v-4.6H607V102.5z M632,118.3h6.2V77.4H632V118.3z M646.3,82.7H659
	v35.6h6.1V82.7h12.7v-5.3h-31.6V82.7z M699.9,77.4l14.7,40.9H708l-3.7-10.8h-16l-3.7,10.8H678l14.7-40.9H699.9z M702.5,102.3
	l-6-17.4h-0.3l-6,17.4H702.5z M727.7,113V77.4h-6.2v40.9h24.7V113H727.7z"/>
<g>
	<path class="st0" d="M85.8,81.7c0-12.1,5.2-23,13.5-30.5c7.5,6.8,12.5,16.4,13.4,27.2c0.1-1.2,0.1-2.4,0.1-3.6
		c0-13.5-5.8-25.7-15.1-34.1c-9.3,8.4-15.1,20.6-15.1,34.1c0,9,2.6,17.4,7,24.4C87.2,93.9,85.8,88,85.8,81.7z"/>
	<path class="st0" d="M73.9,106.7C62.4,103,53.7,94.7,49.1,84.5c8.8-5,19.5-6.8,30-4.3c-1.1-0.4-2.2-0.9-3.3-1.2
		c-12.8-4.2-26.2-2.4-37.1,3.8c5.1,11.4,14.9,20.7,27.8,24.9c8.5,2.8,17.3,2.9,25.4,0.9C85.9,109.2,79.9,108.7,73.9,106.7z"/>
	<path class="st0" d="M94,125.8c-7.1,9.8-17.7,15.5-28.9,16.8c-2.1-10-0.5-20.6,5.1-29.8c-0.8,0.9-1.5,1.8-2.2,2.8
		c-7.9,10.9-10.4,24.2-7.8,36.4c12.4-1.4,24.3-7.8,32.2-18.7c5.3-7.3,8.1-15.6,8.7-23.9C100.1,115.1,97.7,120.7,94,125.8z"/>
	<path class="st0" d="M118.3,112.5c7.1,9.8,9.3,21.7,7,32.6c-10.1-1.1-19.8-5.9-26.8-14.1c0.6,1,1.3,2,2,3
		c7.9,10.9,19.8,17.3,32.2,18.7c2.5-12.3,0.1-25.5-7.8-36.4c-5.3-7.3-12.3-12.5-20-15.6C110,103.5,114.7,107.4,118.3,112.5z"/>
	<path class="st0" d="M113.2,85.3c11.5-3.7,23.5-2.1,33.2,3.4c-4.2,9.3-11.7,17-21.7,21.1c1.1-0.3,2.3-0.6,3.4-1
		c12.8-4.2,22.6-13.5,27.8-24.9c-10.9-6.2-24.2-8-37.1-3.8c-8.5,2.8-15.7,7.8-21.1,14.2C102.1,90.4,107.3,87.2,113.2,85.3z"/>
	<path class="st1" d="M91.8,97.9c0,0-7.3-28.4,6.8-41.6c0,0,8.7,5.1,10.7,21.6C109.3,77.9,95.4,78,91.8,97.9z"/>
	<path class="st2" d="M99.9,95.8c0,0,25.5-14.5,41.9-4.3c0,0-2.7,9.7-18,16C123.8,107.5,120.1,94,99.9,95.8z"/>
	<path class="st3" d="M103.3,103.3c0,0,23.2,17.9,20.2,37c0,0-10,1.3-21.7-10.4C101.8,129.9,112.8,121.2,103.3,103.3z"/>
	<path class="st4" d="M99.4,109.8c0,0-12,26.7-31.3,28.2c0,0-3.6-9.4,5.1-23.6C73.1,114.5,84.1,123.2,99.4,109.8z"/>
	<path class="st5" d="M91.5,106.8c0,0-29.2-2.4-37-20.1c0,0,7.7-6.5,23.9-3C78.4,83.6,73.8,96.8,91.5,106.8z"/>
	<path class="st0" d="M121.2,68.1c2.1-2.7,4.2-5.1,5.8-6.5c-3.2,3-7.4,9.4-7.8,11.1c2.9-0.4,5.7-2,7.6-4.5c2.1-2.7,2.8-6.1,2.2-9.2
		c-3.2,0.3-6.2,1.9-8.3,4.6c-1.9,2.5-2.7,5.6-2.3,8.6C119.3,70.9,120.2,69.5,121.2,68.1z"/>
	<path class="st0" d="M134.1,117.2c3.1,1.5,5.7,3.1,7.5,4.5c-3.5-2.6-10.6-5.5-12.4-5.5c1,2.8,3,5.2,5.9,6.6
		c3.1,1.5,6.5,1.6,9.5,0.4c-0.9-3.1-3-5.8-6.1-7.3c-2.9-1.4-6-1.6-8.8-0.6C131.1,115.7,132.6,116.4,134.1,117.2z"/>
	<path class="st0" d="M96.8,142.9c-0.1,3.4-0.4,6.5-0.9,8.7c0.9-4.3,0.5-11.9-0.2-13.5c-2.1,2.1-3.4,4.9-3.5,8.1
		c-0.1,3.4,1.3,6.6,3.7,8.8c2.4-2.1,3.9-5.2,4-8.6c0.1-3.2-1.1-6.1-3.2-8.3C96.8,139.5,96.8,141.2,96.8,142.9z"/>
	<path class="st0" d="M75.2,70.1c-2.1-2.7-3.9-5.3-4.9-7.2c2.1,3.8,7.3,9.5,8.8,10.3c0.3-2.9-0.5-6-2.5-8.5
		c-2.1-2.7-5.2-4.2-8.4-4.4c-0.5,3.2,0.3,6.5,2.4,9.2c2,2.5,4.8,4,7.7,4.3C77.3,72.7,76.2,71.4,75.2,70.1z"/>
	<path class="st0" d="M60.5,112.9c-3.3,1.1-6.3,1.8-8.5,2.1c4.3-0.6,11.4-3.6,12.7-4.8c-2.7-1.3-5.8-1.6-8.8-0.6
		c-3.3,1.1-5.7,3.5-7,6.4c2.8,1.6,6.2,2,9.5,0.9c3-1,5.4-3.1,6.7-5.8C63.7,111.8,62.2,112.3,60.5,112.9z"/>
</g>
</svg>
